<svg width="20" height="20" viewBox="0 0 20 20" fill="none" xmlns="http://www.w3.org/2000/svg">
<path d="M19.4025 1.57644H16.7222V0.583778C16.7224 0.164444 16.5469 0 16.1001 0H3.81701C3.37021 0 3.19467 0.164444 3.19467 0.583778V1.57644H0.597475C0.168439 1.57644 0 1.73444 0 2.13689V2.18333C0.137405 5.43556 2.4278 8.19044 5.89751 9.35533C6.64566 10.3924 7.56083 11.3044 8.67215 12.0531C8.53356 14.0129 7.79631 15.3784 6.63074 16.6522C6.54119 16.7498 6.53692 16.828 6.71579 16.828H13.2018C13.3804 16.828 13.3761 16.75 13.2866 16.6522C12.1208 15.3784 11.3835 14.0133 11.2449 12.0531C12.3439 11.3131 13.2508 10.4127 13.9942 9.39022C17.5241 8.24667 19.8609 5.46911 20 2.18333V2.13689C20.0002 1.73444 19.8316 1.57644 19.4025 1.57644ZM1.31767 2.85956C1.30724 2.79578 1.32619 2.744 1.42451 2.744H3.33065C3.62346 4.48444 4.10983 6.13222 4.84613 7.60933C2.92767 6.54356 1.63986 4.83667 1.31767 2.85956ZM18.6821 2.85956C18.3535 4.87511 17.0214 6.60956 15.0411 7.67067C15.7945 6.17822 16.2898 4.50867 16.5862 2.74422H18.5753C18.6738 2.74422 18.6928 2.796 18.6821 2.85956Z" fill="black"/>
<path d="M14.9378 17.4116H4.97879C4.56611 17.4116 4.35645 17.6089 4.35645 17.9953V19.4162C4.35645 19.8031 4.56634 20 4.97879 20H14.9378C15.3505 20 15.5602 19.8031 15.5602 19.4162V17.9953C15.5602 17.6087 15.3503 17.4116 14.9378 17.4116Z" fill="black"/>
</svg>
