<svg width="20" height="20" viewBox="0 0 20 20" fill="none" xmlns="http://www.w3.org/2000/svg">
<path d="M19.5941 8.93239L15.7837 12.8561L16.6783 18.3474C16.7675 18.8858 16.5399 19.4277 16.0935 19.741C15.648 20.0553 15.0614 20.0856 14.5847 19.8205L9.99847 17.2752L5.4148 19.8178C4.93806 20.082 4.35239 20.0508 3.90687 19.7374C3.46137 19.424 3.2337 18.883 3.32119 18.3456L4.21308 12.8488L0.402618 8.93216C0.0312167 8.55005 -0.0955628 7.99297 0.0740706 7.48767C0.242808 6.98237 0.680267 6.61366 1.20702 6.5333L6.4119 5.73516L8.71253 0.819551C8.94643 0.319602 9.44909 0 10.0017 0C10.5543 0 11.057 0.319602 11.2909 0.819551L13.5915 5.73859L18.793 6.53316C19.3197 6.61351 19.7572 6.98221 19.9259 7.48753C20.0956 7.99283 19.9688 8.54992 19.5974 8.93202L19.5941 8.93239Z" fill="black"/>
</svg>
