<svg width="26" height="26" viewBox="0 0 26 26" fill="none" xmlns="http://www.w3.org/2000/svg">
<path d="M25.4064 12.381H0.593607C0.267123 12.381 0 12.6595 0 13C0 13.3405 0.267123 13.619 0.593607 13.619H25.4064C25.7329 13.619 26 13.3405 26 13C26 12.6595 25.7329 12.381 25.4064 12.381Z" fill="black"/>
<path d="M25.4064 24.7619H0.593607C0.267123 24.7619 0 25.0405 0 25.381C0 25.7214 0.267123 26 0.593607 26H25.4064C25.7329 26 26 25.7214 26 25.381C26 25.0405 25.7329 24.7619 25.4064 24.7619Z" fill="black"/>
<path d="M0.593607 1.2381H25.4064C25.7329 1.2381 26 0.959524 26 0.619048C26 0.278571 25.7329 0 25.4064 0H0.593607C0.267123 0 0 0.278571 0 0.619048C0 0.959524 0.267123 1.2381 0.593607 1.2381Z" fill="black"/>
</svg>
