<svg width="19" height="18" viewBox="0 0 19 18" fill="none" xmlns="http://www.w3.org/2000/svg">
<path d="M15.1946 9.90762C14.8473 9.90762 14.5121 9.96163 14.1921 10.0544C14.0518 9.79314 13.9631 9.45774 13.91 9.18604L14.3165 8.97401C14.3165 8.97401 15.0482 8.9458 14.8753 7.65824L15.1946 7.58729C15.1946 7.58729 15.532 8.51124 15.7891 8.59186C15.7891 8.59186 15.6693 7.4978 15.7405 7.25756C15.8118 7.01729 15.7587 6.46584 15.7587 6.46584C15.7587 6.46584 14.9785 7.0028 14.3089 7.02699C13.6393 7.05118 12.9826 6.77222 12.9826 6.77222L12.2244 5.72088C12.2244 5.72088 11.6299 3.92862 11.6564 3.41028C11.6564 3.41028 12.009 3.66264 12.0522 3.7368C12.0954 3.81097 12.3017 3.84967 12.4018 3.74002L12.5413 3.7368L12.5777 3.57071L12.7908 3.48202L12.8242 3.34013L13.0137 3.36835C13.0137 3.36835 13.1821 2.77818 13.3997 2.62177C13.3997 2.62177 13.8524 2.73465 13.9184 2.62177C13.9836 2.5097 14.2498 -0.136294 11.203 0.00549986C11.203 0.00549986 11.3183 0.326383 11.2561 0.538413C11.1939 0.750444 11.1765 1.2221 11.2652 1.50509C11.3539 1.78808 10.9589 1.78808 10.9589 1.78808C10.9589 1.78808 6.73222 2.2831 5.9072 4.00848C5.9072 4.00848 5.05565 4.67363 5.00255 5.80476C4.94947 6.93672 5.6054 7.04958 6.26208 8.10566C6.34473 8.23869 6.70947 9.42788 6.70947 9.42788L6.07098 10.7098C5.43706 10.2083 4.65449 9.90678 3.80519 9.90678C1.70692 9.90678 0 11.7216 0 13.9525C0 16.1835 1.70692 17.9983 3.80519 17.9983C5.13675 17.9983 6.30898 17.2662 6.98918 16.1617L7.48359 16.2294C7.70577 16.3641 7.96284 16.4423 8.23658 16.4423C8.33894 16.4423 8.43829 16.431 8.53459 16.4108C8.5035 16.5979 8.50123 16.8672 8.709 16.9728C8.95317 17.0978 9.4415 16.8559 9.69933 16.6229C9.78275 16.6326 10.309 16.6777 10.3257 16.244C10.3371 15.9457 9.86465 15.9828 9.44684 15.8038C9.64399 15.5305 9.76229 15.1894 9.76229 14.8194C9.76229 14.534 9.69177 14.2663 9.56968 14.0325L13.0579 9.83191L13.2444 10.4866C12.1358 11.1945 11.3896 12.4812 11.3896 13.9542C11.3896 16.1852 13.0965 18 15.1948 18C17.2931 18 19 16.1852 19 13.9542C19 11.7233 17.2931 9.90784 15.1948 9.90784L15.1946 9.90762ZM6.08441 11.6225C6.55909 12.1465 6.87681 12.8326 6.95266 13.5953H4.34482C4.34785 13.5897 6.08441 11.6225 6.08441 11.6225ZM3.80502 17.32C2.05868 17.32 0.638497 15.81 0.638497 13.9533C0.638497 12.0966 2.05877 10.5866 3.80502 10.5866C4.52768 10.5866 5.19269 10.8478 5.72652 11.2832L3.93848 13.4439C3.93848 13.4439 3.40616 13.373 3.35309 13.8115C3.3 14.2501 3.06039 15.0419 3.06039 15.0419C3.06039 15.0419 3.52597 14.8298 3.57906 15.1265C3.63216 15.4232 3.48579 15.7917 3.80504 15.8054C3.84902 15.807 3.88997 15.7828 3.92713 15.7433L6.26863 16.0634C5.68778 16.8293 4.79982 17.3203 3.80502 17.3203L3.80502 17.32ZM6.415 15.8559L4.04379 15.5318C4.17422 15.1658 4.17725 14.5659 3.93763 14.5756C3.67906 14.5861 3.99374 14.4305 4.16815 14.2241L6.71077 14.786C6.71077 14.7981 6.70925 14.8094 6.70925 14.8215C6.70925 14.9465 6.72366 15.0674 6.74868 15.1843C6.66148 15.4222 6.54999 15.6479 6.415 15.8559ZM6.77898 14.3386L4.44038 13.8218H6.96553C6.96704 13.8532 6.97008 13.8847 6.97008 13.9169C6.88818 14.0451 6.82372 14.187 6.77898 14.3386ZM8.00967 5.33868C8.00967 5.33868 8.28872 5.19678 8.99393 5.11211C9.69914 5.02746 10.2845 4.60257 10.2845 4.60257L11.083 6.39885L12.7915 8.41684L10.2073 8.97636C10.4393 8.79576 10.7373 8.57083 10.8298 8.52084C10.9898 8.437 12.6663 6.96565 8.00967 5.33868ZM8.40854 7.7855L9.52625 7.89837L8.8635 8.78925C8.7217 8.44016 8.55945 8.09831 8.40854 7.7855ZM8.54882 14.2378C8.55716 14.1379 8.57385 13.9548 8.59811 13.7218C8.69214 13.7573 8.78086 13.8017 8.86124 13.8613L8.54882 14.2378ZM9.08569 15.5544C8.99848 15.4561 8.92493 15.3335 8.87867 15.1706C8.85441 15.086 8.83393 15.0126 8.81422 14.9441L9.26086 14.4063C9.30787 14.5353 9.33593 14.6748 9.33593 14.8215C9.33593 15.0997 9.23963 15.3529 9.08569 15.5544ZM9.14408 13.5211C8.99697 13.405 8.83014 13.3155 8.64891 13.2615C8.74293 12.4673 8.8961 11.4475 9.10084 11.0211C9.25705 10.6937 9.26918 10.3035 9.19715 9.8883L12.8082 9.10705L9.14408 13.5211ZM15.1945 17.32C13.4481 17.32 12.028 15.8099 12.028 13.9533C12.028 12.756 12.6202 11.7054 13.5081 11.1089C13.722 12.0071 14.5091 13.3229 14.8147 13.8107C14.7859 13.8687 14.7684 13.9332 14.7684 14.0034C14.7684 14.2331 14.9443 14.421 15.1612 14.421C15.3773 14.421 15.554 14.2339 15.554 14.0034C15.554 13.7728 15.3781 13.5857 15.1612 13.5857C15.1476 13.5857 15.1339 13.589 15.1203 13.5906C14.437 12.7497 14.042 11.2936 13.9373 10.8655C14.3225 10.6873 14.7479 10.5874 15.1946 10.5874C16.9409 10.5874 18.3611 12.0974 18.3611 13.9541C18.3611 15.81 16.9401 17.3202 15.1946 17.3202L15.1945 17.32Z" fill="black"/>
</svg>
