<svg width="24" height="26" viewBox="0 0 24 26" fill="none" xmlns="http://www.w3.org/2000/svg">
<path d="M23.3766 0H6.45199C6.10913 0 5.82861 0.280105 5.82861 0.622456V6.17477C5.82861 6.51712 6.10913 6.79722 6.45199 6.79722C6.79484 6.79722 7.07536 6.51712 7.07536 6.17477V1.24491H22.7532V24.7551H7.07536V20.4228C7.07536 20.0804 6.79484 19.8003 6.45199 19.8003C6.10913 19.8003 5.82861 20.0804 5.82861 20.4228V25.3775C5.82861 25.7199 6.10913 26 6.45199 26H23.3766C23.7194 26 24 25.7199 24 25.3775V0.622456C24 0.280105 23.7194 0 23.3766 0Z" fill="black"/>
<path d="M11.8379 17.4785C11.5948 17.7213 11.5948 18.1135 11.8379 18.3562C11.9625 18.4807 12.1184 18.5367 12.2805 18.5367C12.4425 18.5367 12.5984 18.4745 12.7231 18.3562L17.6477 13.4388C17.7038 13.3828 17.7537 13.3143 17.7849 13.2334C17.8472 13.084 17.8472 12.9097 17.7849 12.7603C17.7537 12.6856 17.7101 12.6172 17.6477 12.5549L12.7231 7.63751C12.4799 7.39475 12.0872 7.39475 11.8441 7.63751C11.601 7.88027 11.601 8.27242 11.8441 8.51518L15.7028 12.3806H0.623374C0.280518 12.3806 0 12.6607 0 13.0031C0 13.3454 0.280518 13.6255 0.623374 13.6255H15.6966L11.8379 17.4785Z" fill="black"/>
</svg>
