<svg width="20" height="20" viewBox="0 0 20 20" fill="none" xmlns="http://www.w3.org/2000/svg">
<path d="M19.925 7.48771C19.7571 6.98151 19.3188 6.61278 18.7912 6.53331L13.5901 5.73872L11.2868 0.81957C11.0529 0.319609 10.5503 0 9.9977 0C9.44511 0 8.94248 0.319609 8.70859 0.81957L6.41152 5.7353L1.20695 6.53345C0.680226 6.6138 0.242775 6.98251 0.0740653 7.48784C-0.0955559 7.99315 0.0312139 8.55025 0.402594 8.93237L4.21284 12.8491L3.31919 18.3485C3.23171 18.8869 3.45935 19.427 3.90483 19.7404C4.3512 20.0546 4.93683 20.0859 5.41357 19.8216L9.99789 17.2753L14.5829 19.8189C15.0596 20.0831 15.6452 20.051 16.0907 19.7376C16.5371 19.4243 16.7647 18.8832 16.6773 18.3458L15.7827 12.8559L19.5957 8.93397C19.9689 8.55274 20.0964 7.99391 19.925 7.48771ZM14.7561 11.856C14.4418 12.1792 14.2999 12.6319 14.3713 13.0765L15.2729 18.5698L10.6879 16.0262C10.2594 15.7869 9.73628 15.7869 9.30776 16.0262L4.73076 18.575L5.6244 13.079C5.69582 12.6335 5.55388 12.1808 5.23963 11.8576L1.42321 7.94458L6.62779 7.14643C7.09648 7.07411 7.4991 6.77325 7.69908 6.34382L9.99066 1.42101L12.2939 6.34382C12.4939 6.77325 12.8965 7.07501 13.3652 7.14732L18.5682 7.93565L14.7561 11.856Z" fill="black"/>
</svg>
