<svg width="44" height="42" viewBox="0 0 44 42" fill="none" xmlns="http://www.w3.org/2000/svg">
<path d="M42.8 20H1C0.45 20 0 20.45 0 21C0 21.55 0.45 22 1 22H42.8C43.35 22 43.8 21.55 43.8 21C43.8 20.45 43.35 20 42.8 20Z" fill="black"/>
<path d="M42.8 40H1C0.45 40 0 40.45 0 41C0 41.55 0.45 42 1 42H42.8C43.35 42 43.8 41.55 43.8 41C43.8 40.45 43.35 40 42.8 40Z" fill="black"/>
<path d="M1 2H42.8C43.35 2 43.8 1.55 43.8 1C43.8 0.45 43.35 0 42.8 0H1C0.45 0 0 0.45 0 1C0 1.55 0.45 2 1 2Z" fill="black"/>
</svg>
