<svg width="19" height="19" viewBox="0 0 19 19" fill="none" xmlns="http://www.w3.org/2000/svg">
<path d="M7.02675 3.92103C7.05211 4.11466 7.17895 4.25988 7.28042 4.25988C7.50872 4.21147 7.76239 4.21147 7.9907 4.21147C8.37121 4.21147 8.72635 4.25988 9.08149 4.3567C9.23369 4.4051 9.38589 4.16307 9.38589 3.87262V0.532496C9.38589 0.24205 9.25906 0.04842 9.13222 0.04842C8.32047 0.0968275 7.50872 0.387273 6.77308 0.822942C6.64624 0.919757 6.57014 1.16179 6.62087 1.45224L7.02675 3.92103Z" fill="black"/>
<path d="M9.76628 4.59873C10.299 4.84077 10.8317 5.22803 11.339 5.6637C11.4659 5.80892 11.6435 5.6637 11.6942 5.37325L12.3791 1.40383C12.4298 1.16179 12.3537 0.871345 12.2269 0.774529C11.4659 0.338861 10.6795 0.0484152 9.86775 7.62939e-06C9.71555 7.62939e-06 9.61408 0.193638 9.61408 0.484084V4.11465C9.56335 4.35669 9.66482 4.55032 9.76628 4.59873Z" fill="black"/>
<path d="M17.0975 8.56815L14.9667 11.521C14.8652 11.6662 14.8399 11.9083 14.8906 12.1503C15.1189 12.9248 15.2965 13.6994 15.4487 14.5223C15.4994 14.7643 15.6262 14.9095 15.7531 14.8127L18.2391 13.2637C18.3659 13.1669 18.442 12.9248 18.3913 12.6344C18.1376 11.2306 17.8078 9.87516 17.4273 8.66497C17.402 8.47134 17.2244 8.42293 17.0975 8.56815Z" fill="black"/>
<path d="M4.79447 5.61527C5.37792 5.08279 5.98673 4.64712 6.62091 4.40508C6.77311 4.35668 6.87458 4.06623 6.82385 3.77579L6.44334 1.50063C6.39261 1.25859 6.2404 1.11337 6.11357 1.21018C5.37792 1.79108 4.66764 2.51719 4.03346 3.43693C3.93199 3.58216 3.90662 3.8726 3.98273 4.11464L4.49007 5.47005C4.5408 5.66368 4.69301 5.71209 4.79447 5.61527Z" fill="black"/>
<path d="M12.5314 1.54905L11.8212 5.7121C11.7958 5.90573 11.8212 6.14777 11.9226 6.24459C12.3539 6.72866 12.7851 7.30955 13.1656 7.98726C13.2671 8.18089 13.4447 8.13248 13.5461 7.93885L14.9921 4.11465C15.0682 3.92102 15.0428 3.58217 14.9413 3.43694C14.3071 2.5172 13.5969 1.79109 12.8612 1.2102C12.7344 1.16179 12.5822 1.30701 12.5314 1.54905Z" fill="black"/>
<path d="M13.6729 8.90704C14.0026 9.58474 14.3071 10.2624 14.5607 11.037C14.6368 11.279 14.789 11.3274 14.9159 11.1822L17.0213 8.27774C17.1228 8.13251 17.1482 7.84207 17.0721 7.60003C16.6155 6.38984 16.0828 5.27647 15.4993 4.30831C15.3978 4.11468 15.2203 4.16309 15.1188 4.40513L13.6475 8.27774C13.5714 8.47137 13.5714 8.76181 13.6729 8.90704Z" fill="black"/>
<path d="M2.63827 8.66498C3.09488 7.69683 3.62759 6.8739 4.21104 6.19619C4.33787 6.05097 4.36324 5.71212 4.28714 5.51849L3.83053 4.35671C3.75443 4.11467 3.57686 4.06626 3.45002 4.25989C2.86658 5.22804 2.33387 6.34142 1.87726 7.55161C1.80116 7.74524 1.82652 8.08409 1.92799 8.22931L2.28313 8.71339C2.40997 8.90702 2.5368 8.85861 2.63827 8.66498Z" fill="black"/>
<path d="M0.684872 13.2637L0.811708 13.3605C0.938543 13.4573 1.06538 13.3121 1.11611 13.0701C1.39515 11.8115 1.75029 10.6497 2.18153 9.63312C2.283 9.43949 2.25764 9.10064 2.1308 8.95541L1.82639 8.56815C1.69956 8.42293 1.54736 8.47134 1.47125 8.71338C1.06538 9.92357 0.735606 11.279 0.507302 12.6828C0.481935 12.9248 0.558036 13.2153 0.684872 13.2637Z" fill="black"/>
<path d="M15.6768 15.7325C15.7783 16.5554 15.8544 17.4268 15.9051 18.2981C15.9051 18.5401 16.0319 18.7338 16.1588 18.7338H18.7462C18.8984 18.7338 18.9999 18.4917 18.9999 18.2497C18.9745 16.7491 18.873 15.3452 18.6701 13.9414C18.6447 13.651 18.4925 13.5057 18.3403 13.6026L15.8544 15.1516C15.7022 15.2484 15.6261 15.4905 15.6768 15.7325Z" fill="black"/>
<path d="M0.456609 18.7338C0.481976 17.1847 0.634179 15.6841 0.887851 14.2803C0.938585 14.0382 0.862484 13.7478 0.735648 13.651L0.659546 13.6026C0.53271 13.5057 0.380507 13.651 0.329773 13.9414C0.126836 15.4905 0 17.0879 0 18.7338H0.456609Z" fill="black"/>
<path d="M3.95728 8.42294L7.50869 18.4433C7.53405 18.4917 7.55942 18.5885 7.58479 18.6369C7.83846 19.121 8.24434 19.121 8.49801 18.6369C8.75168 18.1529 8.75168 17.3783 8.49801 16.8943L3.98265 8.32613C3.95728 8.27772 3.93192 8.32613 3.95728 8.42294ZM8.37117 18.0076C8.32044 18.3465 8.1175 18.5401 7.91456 18.4433C7.73699 18.3465 7.63552 17.9592 7.68626 17.572C7.73699 17.2331 7.93993 17.0395 8.14287 17.1363C8.3458 17.2331 8.44727 17.6204 8.37117 18.0076Z" fill="#010101"/>
</svg>
