<svg width="20" height="20" viewBox="0 0 20 20" fill="none" xmlns="http://www.w3.org/2000/svg">
<path d="M8.42101 5.7895C8.42101 3.75803 7.00493 2.10529 5.26353 2.10529C3.52212 2.10529 2.10522 3.75803 2.10522 5.7895C2.10522 7.82096 3.52209 9.47371 5.26353 9.47371C7.00496 9.47371 8.42101 7.82139 8.42101 5.7895ZM3.66676 5.7895C3.66676 4.76271 4.38343 3.92696 5.26383 3.92696C6.14437 3.92696 6.86009 4.76271 6.86009 5.7895C6.86009 6.81692 6.14406 7.89476 5.26353 7.89476C4.38299 7.89476 3.66676 6.81692 3.66676 5.7895Z" fill="black"/>
<path d="M18.2634 5.26272C18.2634 4.10197 17.5551 3.1579 16.6838 3.1579C15.8134 3.1579 15.1055 4.10197 15.1055 5.26272C15.1055 6.42385 15.8134 7.36842 16.6838 7.36842C17.5551 7.3683 18.2634 6.42385 18.2634 5.26272ZM16.1961 5.26272C16.1961 4.90375 16.4156 4.61115 16.6847 4.61115C16.9547 4.61115 17.1744 4.90377 17.1744 5.26272C17.1744 5.62242 16.955 5.91505 16.6847 5.91505C16.415 5.91492 16.1961 5.62242 16.1961 5.26272Z" fill="black"/>
<path d="M20 5.4475C20 3.12979 18.4824 1.24391 16.6167 1.24391C14.7524 1.24391 13.2361 3.1297 13.2361 5.4475C13.2361 8.10518 15.1869 11.9211 15.9635 13.3349L6.34185 18.2949C7.72452 15.6975 10.3439 10.2698 10.3439 6.42784C10.3439 2.88349 8.02389 0 5.17222 0C2.32019 0 0 2.88349 0 6.42784C0 11.5367 4.63185 19.449 4.82889 19.7835C4.832 19.789 4.83598 19.792 4.83909 19.7976C4.84307 19.8034 4.84639 19.81 4.85066 19.8159C4.86043 19.8302 4.872 19.8426 4.88314 19.8559C4.89226 19.8658 4.90072 19.8765 4.91027 19.8857C4.91403 19.8893 4.91671 19.8935 4.92047 19.8973C4.92314 19.8998 4.92647 19.9006 4.92937 19.9032C4.93848 19.9106 4.94781 19.9173 4.95714 19.9236C4.97848 19.9393 5.00047 19.9523 5.02333 19.9625C5.03086 19.9664 5.03802 19.9722 5.04576 19.9752C5.05089 19.9774 5.05617 19.978 5.06131 19.9799C5.09531 19.9912 5.12974 19.9976 5.1649 19.9987C5.16736 19.9987 5.1696 20 5.17199 20C5.20222 20 5.23268 19.9948 5.26284 19.9868C5.27152 19.984 5.27948 19.9804 5.28794 19.9774C5.29619 19.9744 5.30393 19.9716 5.31196 19.9684C5.31948 19.965 5.32708 19.9631 5.3346 19.9601L16.7792 14.06C16.7839 14.0575 16.7879 14.0539 16.7925 14.0512C16.8043 14.0448 16.8152 14.0366 16.8257 14.0291C16.839 14.02 16.8516 14.0114 16.8634 14.0004C16.865 13.9994 16.8663 13.9988 16.8676 13.9976C16.8716 13.9943 16.8741 13.9902 16.8778 13.9869C16.8854 13.9789 16.8932 13.9703 16.9007 13.962C16.9094 13.9523 16.9183 13.9432 16.926 13.933C16.934 13.9225 16.9405 13.9111 16.948 13.9001C16.9518 13.8942 16.9562 13.8901 16.9598 13.8838C17.0841 13.6733 20 8.69481 20 5.4474L20 5.4475ZM16.6167 2.30182C18.0129 2.30182 19.1489 3.71277 19.1489 5.4475C19.1489 7.73565 17.3796 11.2403 16.6167 12.6444C15.8549 11.2401 14.087 7.73574 14.087 5.4475C14.0873 3.71286 15.2222 2.30182 16.6167 2.30182ZM5.17204 1.05776C7.55444 1.05776 9.49241 3.46685 9.49241 6.42768C9.49241 10.4213 6.24833 16.608 5.17204 18.5512C4.09557 16.6083 0.851111 10.4209 0.851111 6.42768C0.851111 3.46685 2.78963 1.05776 5.17204 1.05776Z" fill="black"/>
</svg>
