<svg width="26" height="26" viewBox="0 0 26 26" fill="none" xmlns="http://www.w3.org/2000/svg">
<path d="M13.9993 13.0009L25.7848 1.21133C26.0622 0.933844 26.0622 0.485599 25.7848 0.208114C25.5075 -0.0693713 25.0594 -0.0693713 24.782 0.208114L12.9964 11.9977L1.21091 0.208114C0.933525 -0.0693713 0.485433 -0.0693713 0.208043 0.208114C-0.0693476 0.485599 -0.0693476 0.933844 0.208043 1.21133L11.9936 13.0009L0.208043 24.7904C-0.0693476 25.0679 -0.0693476 25.5162 0.208043 25.7937C0.350294 25.936 0.528108 26 0.713034 26C0.897961 26 1.07578 25.9288 1.21803 25.7937L12.9964 14.0041L24.782 25.7937C24.9242 25.936 25.102 26 25.287 26C25.4719 26 25.6497 25.9288 25.792 25.7937C26.0693 25.5162 26.0693 25.0679 25.792 24.7904L13.9993 13.0009Z" fill="black"/>
</svg>
